<?xml version="1.0" encoding="utf-8"?>
<!-- Generator: Adobe Illustrator 25.0.1, SVG Export Plug-In . SVG Version: 6.00 Build 0)  -->
<svg version="1.1" id="Layer_1" xmlns="http://www.w3.org/2000/svg" xmlns:xlink="http://www.w3.org/1999/xlink" x="0px" y="0px"
	 viewBox="0 0 200 180" enable-background="new 0 0 200 180" xml:space="preserve">
<path id="close" fill="#FF0000" d="M131.5,90l47.2-47.2c5.8-5.8,5.8-15.2,0-21l-10.5-10.5c-5.8-5.8-15.2-5.8-21,0L100,58.5
	L52.8,11.3c-5.8-5.8-15.2-5.8-21,0L21.3,21.8c-5.8,5.8-5.8,15.2,0,21L68.5,90l-47.2,47.2c-5.8,5.8-5.8,15.2,0,21l10.5,10.5
	c5.8,5.8,15.2,5.8,21,0l47.2-47.2l47.2,47.2c5.8,5.8,15.2,5.8,21,0l10.5-10.5c5.8-5.8,5.8-15.2,0-21L131.5,90z"/>
</svg>
