<?xml version="1.0" encoding="utf-8"?>
<!-- Generator: Adobe Illustrator 25.0.1, SVG Export Plug-In . SVG Version: 6.00 Build 0)  -->
<svg version="1.1" id="Layer_1" xmlns="http://www.w3.org/2000/svg" xmlns:xlink="http://www.w3.org/1999/xlink" x="0px" y="0px"
	 viewBox="0 0 200 180" enable-background="new 0 0 200 180" xml:space="preserve">
<g id="es6_1_">
	<path id="es6_x5F_bg_1_" fill="#F26522" d="M47.3,37.3h105.4v105.4H47.3V37.3z"/>
	<path id="es6_x5F_text_1_" fill="#FFFFFF" d="M90.7,103.2h16.1v-4.4H95.7V92H106v-4.4H95.7v-6.4h11.1v-4.4H90.7V103.2L90.7,103.2z
		 M128.4,96c0-5.3-0.4-6.4-7.4-8.1c-4.5-1.1-4.6-1.2-4.6-4.2c0-2.3,0.6-3,4-3c2.3,0,4.9,0.3,7,0.8l0.6-4.2c-2.6-0.6-5.4-0.9-7.7-0.9
		c-6.7,0-8.9,2.4-8.9,7.2c0,5.6,0.9,6.8,7.2,8.2c4.7,1,4.8,1.3,4.8,4.2c0,2.5-0.6,3.3-4.2,3.3c-2.6,0-5-0.5-7.4-1.2l-0.9,3.9
		c1.7,0.8,5.2,1.6,8.2,1.6C127,103.6,128.4,101,128.4,96L128.4,96z M137.6,86.2c0-4,1.9-4.8,6.6-4.8c0.8,0,2.6,0.1,3.7,0.4l0.3-4
		c-1.2-0.3-3.1-0.5-4.5-0.5c-7.2,0-10.9,2.2-10.9,9.2V96c0,4.5,1.3,7.6,8.1,7.6c6.2,0,8.1-3.1,8.1-7.2v-1.9c0-4.5-1.9-6.5-6.7-6.5
		c-1.7,0-3.3,0.2-4.7,0.7V86.2L137.6,86.2z M141.5,92.1c1.7,0,2.6,0.6,2.6,2.5v1.9c0,2-0.8,2.9-3.3,2.9c-2.5,0-3.3-0.7-3.3-2.9v-3.6
		C138.7,92.5,140.1,92.1,141.5,92.1L141.5,92.1z"/>
</g>
</svg>
