<?xml version="1.0" encoding="utf-8"?>
<!-- Generator: Adobe Illustrator 25.0.1, SVG Export Plug-In . SVG Version: 6.00 Build 0)  -->
<svg version="1.1" id="Layer_1" xmlns="http://www.w3.org/2000/svg" xmlns:xlink="http://www.w3.org/1999/xlink" x="0px" y="0px"
	 viewBox="0 0 200 180" enable-background="new 0 0 200 180" xml:space="preserve">
<g id="html5i">
	<polygon id="html5i_x5F_shield" fill="#E44D26" points="57.4,137.3 47.9,30.9 152.1,30.9 142.6,137.3 99.9,149.1 	"/>
	<polygon id="html5i_x5F_shield_x5F_highlight" fill="#F16529" points="100,140.1 134.5,130.5 142.6,39.6 100,39.6 	"/>
	<g id="html5i_x5F_cb">
		<path id="html5i_x5F_cb4" fill="#EBEBEB" d="M71.1,99c0-2-0.5-3.5-1.4-4.6c-0.9-1.1-2.3-1.6-4.1-1.6v-8.3c1.8,0,3.2-0.5,4.1-1.5
			c0.9-1,1.4-2.5,1.4-4.4v-0.3v-11c0-3.5,0.7-6,2.1-7.5c1.4-1.4,3.9-2.2,7.4-2.2v7.8c-1.4,0.1-2.4,0.5-2.9,1.3
			c-0.5,0.8-0.8,2-0.8,3.6v10.4c-0.1,4.3-1.8,6.9-5.1,7.7v0.4c3.4,0.8,5.1,3.3,5.1,7.3v0.3v10.4c0,1.6,0.3,2.8,0.8,3.6
			c0.5,0.8,1.5,1.2,3,1.3v7.8c-3.5,0-6-0.7-7.4-2.2c-1.4-1.4-2.1-3.9-2.1-7.5V99z"/>
		<path id="html5i_x5F_cb3" fill="#EBEBEB" d="M88.6,99c0-2-0.5-3.5-1.4-4.6c-0.9-1.1-2.3-1.6-4.1-1.6v-8.3c1.8,0,3.2-0.5,4.1-1.5
			c0.9-1,1.4-2.5,1.4-4.4v-0.3v-11c0-3.5,0.7-6,2.1-7.5c1.4-1.4,3.9-2.2,7.4-2.2v7.8c-1.4,0.1-2.4,0.5-2.9,1.3
			c-0.5,0.8-0.8,2-0.8,3.6v10.4c-0.1,4.3-1.8,6.9-5.1,7.7v0.4c3.4,0.8,5.1,3.3,5.1,7.3v0.3v10.4c0,1.6,0.3,2.8,0.8,3.6
			c0.5,0.8,1.5,1.2,3,1.3v7.8c-3.5,0-6-0.7-7.4-2.2c-1.4-1.4-2.1-3.9-2.1-7.5V99z"/>
		<path id="html5i_x5F_cb2" fill="#FFFFFF" d="M111,109.9c0,2.6-0.3,4.5-0.9,5.9c-0.6,1.3-1.6,2.3-2.9,2.9c-1.4,0.6-3.2,0.9-5.6,0.9
			v-7.8c1.4,0,2.4-0.5,2.9-1.2c0.5-0.8,0.8-2,0.8-3.6V96.5v-0.4c0-2,0.4-3.6,1.3-4.8c0.8-1.2,2.1-2,3.8-2.4v-0.4
			c-3.3-0.8-4.9-3.3-5-7.7V70.4c0-1.6-0.3-2.8-0.8-3.6c-0.5-0.8-1.5-1.2-3-1.3v-7.8c2.4,0,4.3,0.3,5.7,0.9c1.4,0.6,2.3,1.6,2.9,2.9
			c0.6,1.3,0.9,3.3,0.9,5.8v11v0.3c0,1.9,0.4,3.4,1.3,4.4c0.9,1,2.3,1.5,4.2,1.5v8.3c-1.8,0-3.2,0.5-4.1,1.4
			c-0.9,0.9-1.4,2.5-1.4,4.8V109.9z"/>
		<path id="html5i_x5F_cb1" fill="#FFFFFF" d="M128.5,109.9c0,2.6-0.3,4.5-0.9,5.9c-0.6,1.3-1.6,2.3-2.9,2.9
			c-1.4,0.6-3.2,0.9-5.6,0.9v-7.8c1.4,0,2.4-0.5,2.9-1.2c0.5-0.8,0.8-2,0.8-3.6V96.5v-0.4c0-2,0.4-3.6,1.3-4.8
			c0.8-1.2,2.1-2,3.8-2.4v-0.4c-3.3-0.8-4.9-3.3-5-7.7V70.4c0-1.6-0.3-2.8-0.8-3.6c-0.5-0.8-1.5-1.2-3-1.3v-7.8
			c2.4,0,4.3,0.3,5.7,0.9c1.4,0.6,2.3,1.6,2.9,2.9c0.6,1.3,0.9,3.3,0.9,5.8v11v0.3c0,1.9,0.4,3.4,1.3,4.4c0.9,1,2.3,1.5,4.2,1.5v8.3
			c-1.8,0-3.2,0.5-4.1,1.4c-0.9,0.9-1.4,2.5-1.4,4.8V109.9z"/>
	</g>
</g>
</svg>
