<svg id="ewaufsxhyy41" xmlns="http://www.w3.org/2000/svg" xmlns:xlink="http://www.w3.org/1999/xlink" viewBox="0 0 200 180" shape-rendering="geometricPrecision" text-rendering="geometricPrecision"><style><![CDATA[#ewaufsxhyy43 {animation: ewaufsxhyy43_f_o 3800ms linear infinite normal forwards}@keyframes ewaufsxhyy43_f_o { 0% {fill-opacity: 0} 5.263158% {fill-opacity: 0.500000} 50% {fill-opacity: 0.500000} 55.263158% {fill-opacity: 0} 100% {fill-opacity: 0} }#ewaufsxhyy44 {animation: ewaufsxhyy44_f_o 3800ms linear infinite normal forwards}@keyframes ewaufsxhyy44_f_o { 0% {fill-opacity: 0} 5.263158% {fill-opacity: 0} 10.526316% {fill-opacity: 0.500000} 55.263158% {fill-opacity: 0.500000} 60.526316% {fill-opacity: 0} 100% {fill-opacity: 0} }#ewaufsxhyy45 {animation: ewaufsxhyy45_f_o 3800ms linear infinite normal forwards}@keyframes ewaufsxhyy45_f_o { 0% {fill-opacity: 0} 10.526316% {fill-opacity: 0} 15.789474% {fill-opacity: 0.500000} 60.526316% {fill-opacity: 0.500000} 65.789474% {fill-opacity: 0} 100% {fill-opacity: 0} }#ewaufsxhyy46 {animation: ewaufsxhyy46_f_o 3800ms linear infinite normal forwards}@keyframes ewaufsxhyy46_f_o { 0% {fill-opacity: 0} 15.789474% {fill-opacity: 0} 21.052632% {fill-opacity: 0.500000} 65.789474% {fill-opacity: 0.500000} 71.052632% {fill-opacity: 0} 100% {fill-opacity: 0} }#ewaufsxhyy47 {animation: ewaufsxhyy47_f_o 3800ms linear infinite normal forwards}@keyframes ewaufsxhyy47_f_o { 0% {fill-opacity: 0} 21.052632% {fill-opacity: 0} 26.315789% {fill-opacity: 0.500000} 71.052632% {fill-opacity: 0.500000} 76.315789% {fill-opacity: 0} 100% {fill-opacity: 0} }#ewaufsxhyy48 {animation: ewaufsxhyy48_f_o 3800ms linear infinite normal forwards}@keyframes ewaufsxhyy48_f_o { 0% {fill-opacity: 0} 26.315789% {fill-opacity: 0} 31.578947% {fill-opacity: 0.500000} 76.315789% {fill-opacity: 0.500000} 81.578947% {fill-opacity: 0} 100% {fill-opacity: 0} }#ewaufsxhyy49 {animation: ewaufsxhyy49_f_o 3800ms linear infinite normal forwards}@keyframes ewaufsxhyy49_f_o { 0% {fill-opacity: 0} 31.578947% {fill-opacity: 0} 36.842105% {fill-opacity: 0.500000} 81.578947% {fill-opacity: 0.500000} 86.842105% {fill-opacity: 0} 100% {fill-opacity: 0} }#ewaufsxhyy410 {animation: ewaufsxhyy410_f_o 3800ms linear infinite normal forwards}@keyframes ewaufsxhyy410_f_o { 0% {fill-opacity: 0} 36.842105% {fill-opacity: 0} 42.105263% {fill-opacity: 0.500000} 86.842105% {fill-opacity: 0.500000} 92.105263% {fill-opacity: 0} 100% {fill-opacity: 0} }#ewaufsxhyy411 {animation: ewaufsxhyy411_f_o 3800ms linear infinite normal forwards}@keyframes ewaufsxhyy411_f_o { 0% {fill-opacity: 0} 42.105263% {fill-opacity: 0} 47.368421% {fill-opacity: 0.500000} 92.105263% {fill-opacity: 0.500000} 97.368421% {fill-opacity: 0} 100% {fill-opacity: 0} }]]></style><g id="ewaufsxhyy42"><rect id="ewaufsxhyy43" width="23" height="23" rx="0" ry="0" transform="matrix(1 0 0 1 63.80000000000000 54.20000000000000)" fill="rgb(255,0,0)" fill-opacity="0" stroke="none" stroke-width="1"/><rect id="ewaufsxhyy44" width="23" height="23" rx="0" ry="0" transform="matrix(1 0 0 1 88.80000000000000 54.20000000000000)" fill="rgb(255,163,0)" fill-opacity="0" stroke="none" stroke-width="1"/><rect id="ewaufsxhyy45" width="23" height="23" rx="0" ry="0" transform="matrix(1 0 0 1 113.80000000000000 54.20000000000000)" fill="rgb(255,255,0)" fill-opacity="0" stroke="none" stroke-width="1"/><rect id="ewaufsxhyy46" width="23" height="23" rx="0" ry="0" transform="matrix(1 0 0 1 63.80000000000000 79.20000000000000)" fill="rgb(0,193,23)" fill-opacity="0" stroke="none" stroke-width="1"/><rect id="ewaufsxhyy47" width="23" height="23" rx="0" ry="0" transform="matrix(1 0 0 1 88.80000000000000 79.20000000000000)" fill="rgb(0,73,255)" fill-opacity="0" stroke="none" stroke-width="1"/><rect id="ewaufsxhyy48" width="23" height="23" rx="0" ry="0" transform="matrix(1 0 0 1 113.80000000000000 79.20000000000000)" fill="rgb(205,0,255)" fill-opacity="0" stroke="none" stroke-width="1"/><rect id="ewaufsxhyy49" width="23" height="23" rx="0" ry="0" transform="matrix(1 0 0 1 63.80000000000000 103.20000000000000)" fill="rgb(255,255,0)" fill-opacity="0" stroke="none" stroke-width="1"/><rect id="ewaufsxhyy410" width="23" height="23" rx="0" ry="0" transform="matrix(1 0 0 1 88.80000000000000 103.20000000000000)" fill="rgb(255,163,0)" fill-opacity="0" stroke="none" stroke-width="1"/><rect id="ewaufsxhyy411" width="23" height="23" rx="0" ry="0" transform="matrix(1 0 0 1 113.80000000000000 103.20000000000000)" fill="rgb(255,0,0)" fill-opacity="0" stroke="none" stroke-width="1"/><path id="ewaufsxhyy412" d="M135.100000,51.200000L64.600000,51.200000C62.500000,51.200000,60.800000,52.900000,60.800000,55L60.800000,125.500000C60.800000,127.600000,62.500000,129.300000,64.600000,129.300000L135.100000,129.300000C137.200000,129.300000,138.900000,127.600000,138.900000,125.500000L138.900000,54.900000C138.900000,52.900000,137.200000,51.200000,135.100000,51.200000ZM90.500000,100L90.500000,80.800000L110.200000,80.800000L110.200000,100L90.500000,100ZM110.200000,105L110.200000,124.200000L90.500000,124.200000L90.500000,105L110.200000,105ZM65.800000,80.800000L85.500000,80.800000L85.500000,100L65.800000,100L65.800000,80.800000ZM90.500000,75.800000L90.500000,56.200000L110.200000,56.200000L110.200000,75.900000L90.500000,75.900000ZM115.200000,80.800000L133.900000,80.800000L133.900000,100L115.200000,100L115.200000,80.800000ZM133.900000,75.800000L115.200000,75.800000L115.200000,56.200000L133.900000,56.200000L133.900000,75.800000ZM85.500000,56.200000L85.500000,75.900000L65.800000,75.900000L65.800000,56.200000L85.500000,56.200000ZM65.800000,105L85.500000,105L85.500000,124.200000L65.800000,124.200000L65.800000,105ZM115.200000,124.200000L115.200000,105L133.900000,105L133.900000,124.200000L115.200000,124.200000Z" fill="rgb(68,79,109)" stroke="none" stroke-width="1"/></g></svg>