<?xml version="1.0" encoding="utf-8"?>
<!-- Generator: Adobe Illustrator 25.0.1, SVG Export Plug-In . SVG Version: 6.00 Build 0)  -->
<svg version="1.1" id="Layer_1" xmlns="http://www.w3.org/2000/svg" xmlns:xlink="http://www.w3.org/1999/xlink" x="0px" y="0px"
	 viewBox="0 0 200 180" enable-background="new 0 0 200 180" xml:space="preserve">
<path id="raster" fill="#444F6D" d="M135.1,51.2H64.6c-2.1,0-3.8,1.7-3.8,3.8v70.5c0,2.1,1.7,3.8,3.8,3.8h70.5
	c2.1,0,3.8-1.7,3.8-3.8V54.9C138.9,52.9,137.2,51.2,135.1,51.2z M90.5,100V80.8h19.7V100H90.5z M110.2,105v19.2H90.5V105H110.2z
	 M65.8,80.8h19.7V100H65.8V80.8z M90.5,75.8V56.2h19.7v19.7H90.5z M115.2,80.8h18.7V100h-18.7V80.8z M133.9,75.8h-18.7V56.2h18.7
	V75.8z M85.5,56.2v19.7H65.8V56.2H85.5z M65.8,105h19.7v19.2H65.8V105z M115.2,124.2V105h18.7v19.2H115.2z"/>
</svg>
