<?xml version="1.0" encoding="utf-8"?>
<!-- Generator: Adobe Illustrator 25.0.1, SVG Export Plug-In . SVG Version: 6.00 Build 0)  -->
<svg version="1.1" id="Layer_1" xmlns="http://www.w3.org/2000/svg" xmlns:xlink="http://www.w3.org/1999/xlink" x="0px" y="0px"
	 viewBox="0 0 200 180" enable-background="new 0 0 200 180" xml:space="preserve">
<g id="react">
	<path id="react_x5F_outer" fill="#53C1DE" d="M135.4,72.8L135.4,72.8c-1.2-0.4-2.4-0.8-3.5-1.1c0.2-0.8,0.4-1.6,0.5-2.4
		c2.7-13,0.9-23.5-5.1-26.9c-5.7-3.3-15.1,0.1-24.6,8.4c-0.9,0.8-1.8,1.7-2.7,2.5c-0.6-0.6-1.2-1.1-1.8-1.7
		c-9.9-8.8-19.9-12.5-25.9-9.1c-5.7,3.3-7.4,13.2-5,25.5c0.2,1.2,0.5,2.4,0.8,3.6c-1.4,0.4-2.8,0.8-4.1,1.3
		C52.4,76.9,45,83.3,45,89.9c0,6.8,8,13.7,20.1,17.8c1,0.3,2,0.6,3,0.9c-0.3,1.3-0.6,2.6-0.9,3.9c-2.3,12.1-0.5,21.7,5.2,25
		c5.9,3.4,15.8-0.1,25.5-8.5c0.8-0.7,1.5-1.4,2.3-2.1c1,0.9,2,1.8,3,2.7c9.3,8,18.6,11.3,24.3,8c5.9-3.4,7.8-13.8,5.3-26.3
		c-0.2-1-0.4-1.9-0.7-2.9c0.7-0.2,1.4-0.4,2-0.6c12.6-4.2,20.8-10.9,20.8-17.8C155,83.3,147.3,76.9,135.4,72.8z M105.9,54.2
		c8.1-7.1,15.7-9.9,19.2-7.9c3.7,2.1,5.1,10.7,2.8,21.9c-0.2,0.7-0.3,1.5-0.5,2.2c-4.6-1.1-9.5-1.8-14.7-2.3
		c-3-4.3-6.2-8.2-9.3-11.6C104.2,55.8,105,55,105.9,54.2z M77.5,95.5c1,1.9,2,3.8,3.1,5.7c1.1,1.9,2.3,3.8,3.5,5.6
		c-3.6-0.4-7-0.9-10.1-1.6C74.9,102.1,76.1,98.9,77.5,95.5z M77.5,84.5c-1.4-3.2-2.5-6.4-3.5-9.5c3.1-0.7,6.5-1.3,10-1.7
		c-1.2,1.8-2.3,3.7-3.4,5.5C79.5,80.7,78.5,82.6,77.5,84.5z M80,90c1.4-3,3-6,4.7-8.9v0c1.7-2.9,3.4-5.7,5.3-8.5
		c3.3-0.2,6.6-0.4,10-0.4c3.4,0,6.8,0.1,10,0.4c1.9,2.8,3.6,5.6,5.3,8.5c1.7,2.9,3.3,5.8,4.7,8.8c-1.5,3-3,6-4.7,8.9h0
		c-1.7,2.9-3.4,5.7-5.3,8.5c-3.3,0.2-6.6,0.4-10.1,0.4c-3.4,0-6.8-0.1-10-0.3c-1.9-2.8-3.7-5.6-5.4-8.5C83,96,81.4,93,80,90z
		 M119.4,101.2c1.1-1.9,2.2-3.9,3.2-5.8h0c1.5,3.4,2.7,6.6,3.7,9.7c-3.2,0.7-6.6,1.3-10.3,1.7C117.2,105,118.3,103.1,119.4,101.2z
		 M122.6,84.5c-1-1.9-2.1-3.8-3.2-5.7c-1.1-1.9-2.2-3.7-3.3-5.5c3.5,0.4,6.9,1,10,1.8C125.1,78.1,124,81.2,122.6,84.5z M100.1,59.9
		c2.2,2.3,4.3,5,6.5,7.8c-4.3-0.2-8.7-0.2-13,0C95.7,64.9,97.9,62.3,100.1,59.9z M74.7,46.5c3.7-2.1,11.8,0.9,20.4,8.5
		c0.5,0.5,1.1,1,1.7,1.5c-3.2,3.4-6.4,7.3-9.4,11.6c-5.2,0.5-10.1,1.2-14.7,2.3c-0.3-1.1-0.5-2.3-0.8-3.4v0
		C69.9,56.5,71.3,48.5,74.7,46.5z M69.3,104.1c-0.9-0.3-1.8-0.5-2.7-0.8c-5.4-1.8-9.8-4.2-12.8-6.8c-2.7-2.3-4.1-4.7-4.1-6.5
		c0-4,6-9.1,15.9-12.6c1.3-0.4,2.5-0.8,3.8-1.2c1.4,4.5,3.2,9.2,5.4,13.9C72.6,94.8,70.7,99.6,69.3,104.1z M94.8,125.5
		c-4.3,3.7-8.5,6.4-12.3,7.7h0c-3.4,1.2-6.1,1.2-7.7,0.3c-3.5-2-4.9-9.7-2.9-20.1c0.2-1.2,0.5-2.4,0.8-3.7c4.5,1,9.5,1.7,14.8,2.1
		c3,4.3,6.2,8.2,9.4,11.7C96.2,124.3,95.5,124.9,94.8,125.5z M100.2,120.2c-2.2-2.4-4.4-5.1-6.6-7.9c2.1,0.1,4.3,0.1,6.4,0.1
		c2.2,0,4.5-0.1,6.6-0.1C104.5,115.2,102.3,117.8,100.2,120.2z M128.7,126.8c-0.7,3.5-2,5.9-3.6,6.8c-3.5,2-10.9-0.6-18.9-7.5
		c-0.9-0.8-1.8-1.6-2.8-2.5c3.1-3.4,6.2-7.3,9.2-11.7c5.3-0.5,10.3-1.2,14.9-2.3c0.2,0.9,0.4,1.8,0.6,2.7
		C129.3,117.8,129.4,122.8,128.7,126.8z M132.7,103.3L132.7,103.3c-0.6,0.2-1.2,0.4-1.8,0.6c-1.4-4.4-3.3-9.1-5.6-13.9
		c2.2-4.7,4-9.4,5.4-13.7c1.1,0.3,2.2,0.7,3.3,1c10.2,3.5,16.4,8.7,16.4,12.7C150.3,94.2,143.6,99.7,132.7,103.3z"/>
	<path id="react_x5F_center" fill="#53C1DE" d="M100,80.1c5.4,0,9.8,4.4,9.8,9.8c0,5.4-4.4,9.8-9.8,9.8c-5.4,0-9.8-4.4-9.8-9.8
		C90.2,84.5,94.6,80.1,100,80.1"/>
</g>
</svg>
