<?xml version="1.0" encoding="utf-8"?>
<!-- Generator: Adobe Illustrator 25.0.1, SVG Export Plug-In . SVG Version: 6.00 Build 0)  -->
<svg version="1.1" id="Layer_1" xmlns="http://www.w3.org/2000/svg" xmlns:xlink="http://www.w3.org/1999/xlink" x="0px" y="0px"
	 viewBox="0 0 200 180" enable-background="new 0 0 200 180" xml:space="preserve">
<path id="udd" fill="#444F6D" d="M65,84.5c5.6,0,10.1-4.5,10.1-10.1S70.6,64.3,65,64.3s-10.1,4.5-10.1,10.1S59.4,84.5,65,84.5z
	 M135.5,84.5c5.6,0,10.1-4.5,10.1-10.1s-4.5-10.1-10.1-10.1s-10.1,4.5-10.1,10.1S129.9,84.5,135.5,84.5z M140.5,89.5h-10.1
	c-2.8,0-5.3,1.1-7.1,2.9c6.3,3.5,10.8,9.8,11.8,17.2h10.4c2.8,0,5-2.3,5-5v-5C150.6,94,146.1,89.5,140.5,89.5z M100.2,89.5
	c9.7,0,17.6-7.9,17.6-17.6s-7.9-17.6-17.6-17.6s-17.6,7.9-17.6,17.6S90.5,89.5,100.2,89.5z M112.3,94.5H111
	c-3.3,1.6-6.9,2.5-10.8,2.5c-3.9,0-7.5-0.9-10.8-2.5h-1.3c-10,0-18.1,8.1-18.1,18.1v4.5c0,4.2,3.4,7.6,7.6,7.6h45.3
	c4.2,0,7.6-3.4,7.6-7.6v-4.5C130.5,102.7,122.3,94.5,112.3,94.5z M77.1,92.4c-1.8-1.8-4.3-2.9-7.1-2.9H60c-5.6,0-10.1,4.5-10.1,10.1
	v5c0,2.8,2.3,5,5,5h10.4C66.3,102.2,70.8,95.9,77.1,92.4L77.1,92.4z"/>
</svg>
