<?xml version="1.0" encoding="utf-8"?>
<!-- Generator: Adobe Illustrator 25.0.1, SVG Export Plug-In . SVG Version: 6.00 Build 0)  -->
<svg version="1.1" id="Layer_1" xmlns="http://www.w3.org/2000/svg" xmlns:xlink="http://www.w3.org/1999/xlink" x="0px" y="0px"
	 viewBox="0 0 200 180" enable-background="new 0 0 200 180" xml:space="preserve">
<path id="usability" fill="#444F6D" d="M101.3,130.9c-1.4,3.4-5.2,5-8.5,3.6l-6.3-2.6c-3.4-1.4-5-5.4-3.6-8.9l7.5-18.2H78.9
	c-5.8,0-8.7-7.1-4.8-11.4L117,47.5c4.1-4.4,11.3-1.4,11.3,4.7v65.6c0,6.2-7.4,9.1-11.5,4.5l-8.2-9.2L101.3,130.9L101.3,130.9z
	 M121.1,118.6c0.6,0.7,1.7,0.2,1.7-0.8V52.2c0-1-1-1.5-1.6-0.8L78.2,97.3c-0.7,0.7-0.2,2,0.7,2h19.9l-10.7,25.9
	c-0.2,0.6,0,1.3,0.6,1.6l6.3,2.6c0.5,0.2,1-0.1,1.2-0.6l10.8-26.1C106.9,102.6,121.1,118.6,121.1,118.6z"/>
</svg>
