<svg id="vector_anim" xmlns="http://www.w3.org/2000/svg" xmlns:xlink="http://www.w3.org/1999/xlink" viewBox="0 0 200 180" shape-rendering="geometricPrecision" text-rendering="geometricPrecision"><style><![CDATA[#vector_anim-vector_x5f_anim_1__tr {animation: vector_anim-vector_x5f_anim_1__tr__tr 3000ms linear infinite normal forwards}@keyframes vector_anim-vector_x5f_anim_1__tr__tr { 0% {transform: translate(99.799995px,90.079685px) rotate(0deg)} 100% {transform: translate(99.799995px,90.079685px) rotate(360deg)} }]]></style><g id="vector_anim-vector_x5f_anim_1__tr" transform="translate(99.799995,90.079685) rotate(0)"><g id="vector_anim-vector_x5f_anim_1_" transform="translate(-99.799995,-90.079685)"><polygon id="vector_anim-vector_x5f_anim_x5f_color" points="98.900000,54.500000 87.800000,75.800000 61.200000,80.800000 78.300000,100 75.300000,127.200000 99.800000,114.600000 123.300000,127.200000 120.300000,101.200000 138.800000,80.800000 112.300000,76.200000" fill="rgb(255,255,0)" stroke="none" stroke-width="1"/><path id="vector_anim-vector_x5f_anim_x5f_outline" d="M123.600000,130.500000C123,130.500000,122.300000,130.300000,121.700000,130L99.800000,118.500000L78,130.100000C76.600000,130.800000,75,130.700000,73.800000,129.800000C72.600000,128.900000,72,127.400000,72.200000,125.900000L76.400000,101.600000L58.700000,84.300000C57.600000,83.200000,57.200000,81.700000,57.700000,80.200000C58.200000,78.700000,59.400000,77.700000,60.900000,77.500000L85.300000,73.900000L96.200000,51.800000C96.900000,50.400000,98.200000,49.600000,99.800000,49.600000C101.300000,49.600000,102.700000,50.500000,103.400000,51.800000L114.300000,73.900000L138.700000,77.500000C140.200000,77.700000,141.400000,78.800000,141.900000,80.200000C142.400000,81.700000,142,83.200000,140.900000,84.300000L123.200000,101.500000L127.400000,125.800000C127.700000,127.300000,127.100000,128.800000,125.800000,129.700000C125.200000,130.300000,124.400000,130.500000,123.600000,130.500000ZM99.800000,112.300000C100.400000,112.300000,101.100000,112.500000,101.700000,112.800000L120.900000,122.900000L117.200000,101.500000C117,100.200000,117.400000,98.900000,118.300000,98L133.800000,82.900000L112.300000,79.800000C111,79.600000,109.900000,78.800000,109.300000,77.600000L99.700000,58.200000L90.100000,77.600000C89.500000,78.800000,88.400000,79.600000,87.100000,79.800000L65.600000,82.900000L81.300000,98C82.200000,98.900000,82.700000,100.200000,82.400000,101.500000L78.700000,122.900000L98,112.800000C98.600000,112.500000,99.200000,112.300000,99.800000,112.300000ZM98.900000,118.100000C98.900000,118.100000,98.900000,118.100000,98.900000,118.100000L98.900000,118.100000ZM100.800000,118.100000L100.800000,118.100000C100.800000,118.100000,100.800000,118.100000,100.800000,118.100000Z" fill="rgb(68,79,109)" stroke="none" stroke-width="1"/></g></g></svg>