<?xml version="1.0" encoding="utf-8"?>
<!-- Generator: Adobe Illustrator 25.0.1, SVG Export Plug-In . SVG Version: 6.00 Build 0)  -->
<svg version="1.1" id="Layer_1" xmlns="http://www.w3.org/2000/svg" xmlns:xlink="http://www.w3.org/1999/xlink" x="0px" y="0px"
	 viewBox="0 0 200 180" enable-background="new 0 0 200 180" xml:space="preserve">
<path id="vector" fill="#444F6D" d="M123.6,130.5c-0.6,0-1.3-0.2-1.9-0.5l-21.9-11.5L78,130.1c-1.4,0.7-3,0.6-4.2-0.3
	c-1.2-0.9-1.8-2.4-1.6-3.9l4.2-24.3L58.7,84.3c-1.1-1.1-1.5-2.6-1-4.1c0.5-1.5,1.7-2.5,3.2-2.7l24.4-3.6l10.9-22.1
	c0.7-1.4,2-2.2,3.6-2.2c1.5,0,2.9,0.9,3.6,2.2l10.9,22.1l24.4,3.6c1.5,0.2,2.7,1.3,3.2,2.7c0.5,1.5,0.1,3-1,4.1l-17.7,17.2l4.2,24.3
	c0.3,1.5-0.3,3-1.6,3.9C125.2,130.3,124.4,130.5,123.6,130.5z M99.8,112.3c0.6,0,1.3,0.2,1.9,0.5l19.2,10.1l-3.7-21.4
	c-0.2-1.3,0.2-2.6,1.1-3.5l15.5-15.1l-21.5-3.1c-1.3-0.2-2.4-1-3-2.2l-9.6-19.4l-9.6,19.4c-0.6,1.2-1.7,2-3,2.2l-21.5,3.1L81.3,98
	c0.9,0.9,1.4,2.2,1.1,3.5l-3.7,21.4L98,112.8C98.6,112.5,99.2,112.3,99.8,112.3z M98.9,118.1C98.9,118.1,98.9,118.1,98.9,118.1
	L98.9,118.1z M100.8,118.1L100.8,118.1C100.8,118.1,100.8,118.1,100.8,118.1z"/>
</svg>
