<svg id="videodesign" xmlns="http://www.w3.org/2000/svg" xmlns:xlink="http://www.w3.org/1999/xlink" viewBox="0 0 200 180" shape-rendering="geometricPrecision" text-rendering="geometricPrecision"><style><![CDATA[#videodesign-path1_ts {animation: videodesign-path1_ts__ts 1500ms linear infinite normal forwards}@keyframes videodesign-path1_ts__ts { 0% {transform: translate(174.050011px,80.250000px) scale(0.650000,0.650000)} 46.666667% {transform: translate(174.050011px,80.250000px) scale(1,1)} 100% {transform: translate(174.050011px,80.250000px) scale(0.650000,0.650000)} }#videodesign-path2_ts {animation: videodesign-path2_ts__ts 1500ms linear infinite normal forwards}@keyframes videodesign-path2_ts__ts { 0% {transform: translate(113.600002px,48.449999px) scale(1,1)} 46.666667% {transform: translate(113.600002px,48.449999px) scale(0.650000,0.650000)} 100% {transform: translate(113.600002px,48.449999px) scale(1,1)} }#videodesign-path3_ts {animation: videodesign-path3_ts__ts 1500ms linear infinite normal forwards}@keyframes videodesign-path3_ts__ts { 0% {transform: translate(31.650002px,63.349998px) scale(0.650000,0.650000)} 46.666667% {transform: translate(31.650002px,63.349998px) scale(1,1)} 100% {transform: translate(31.650002px,63.349998px) scale(0.650000,0.650000)} }]]></style><g id="videodesign-videodesign"><g id="videodesign-path1_ts" transform="translate(174.050011,80.250000) scale(0.650000,0.650000)"><path id="videodesign-path1" d="M182.800000,79.600000L177.100000,77.200000L174.700000,71.500000C174.500000,71.100000,174.100000,71,173.700000,71.200000C173.500000,71.300000,173.400000,71.400000,173.400000,71.500000L171,77.200000L165.300000,79.600000C164.900000,79.800000,164.800000,80.200000,165,80.600000C165.100000,80.800000,165.200000,80.900000,165.300000,80.900000L171,83.300000L173.400000,89C173.600000,89.400000,174,89.500000,174.400000,89.300000C174.600000,89.200000,174.700000,89.100000,174.700000,89L177.100000,83.300000L182.800000,80.900000C183.200000,80.700000,183.300000,80.300000,183.100000,79.900000C183.100000,79.800000,183,79.700000,182.800000,79.600000L182.800000,79.600000Z" transform="translate(-174.050011,-80.250000)" fill="rgb(68,79,109)" stroke="none" stroke-width="1"/></g><g id="videodesign-path2_ts" transform="translate(113.600002,48.449999) scale(1,1)"><path id="videodesign-path2" d="M122.300000,47.800000L116.600000,45.400000L114.200000,39.700000C114,39.300000,113.600000,39.200000,113.200000,39.400000C113,39.500000,112.900000,39.600000,112.900000,39.700000L110.600000,45.400000L104.900000,47.800000C104.500000,48,104.400000,48.400000,104.600000,48.800000C104.700000,49,104.800000,49.100000,104.900000,49.100000L110.600000,51.500000L113,57.200000C113.200000,57.600000,113.600000,57.700000,114,57.500000C114.200000,57.400000,114.300000,57.300000,114.300000,57.200000L116.600000,51.500000L122.300000,49.100000C122.700000,48.900000,122.800000,48.500000,122.600000,48.100000C122.600000,48,122.500000,47.900000,122.300000,47.800000L122.300000,47.800000Z" transform="translate(-113.600002,-48.449999)" fill="rgb(68,79,109)" stroke="none" stroke-width="1"/></g><g id="videodesign-path3_ts" transform="translate(31.650002,63.349998) scale(0.650000,0.650000)"><path id="videodesign-path3" d="M34.700000,60.300000L32.300000,54.600000C32.100000,54.200000,31.700000,54.100000,31.300000,54.300000C31.100000,54.400000,31,54.500000,31,54.600000L28.600000,60.300000L22.900000,62.700000C22.500000,62.900000,22.400000,63.300000,22.600000,63.700000C22.700000,63.900000,22.800000,64,22.900000,64L28.600000,66.400000L31,72.100000C31.200000,72.500000,31.600000,72.600000,32,72.400000C32.200000,72.300000,32.300000,72.200000,32.300000,72.100000L34.700000,66.400000L40.400000,64C40.800000,63.800000,40.900000,63.400000,40.700000,63C40.600000,62.800000,40.500000,62.700000,40.400000,62.700000L34.700000,60.300000Z" transform="translate(-31.650002,-63.349998)" fill="rgb(68,79,109)" stroke="none" stroke-width="1"/></g><path id="videodesign-path4" d="M151.400000,73.900000C150.200000,73.900000,149,74.200000,147.900000,75L126.900000,88.400000L126.900000,76.900000C126.900000,71.900000,122.500000,67.800000,117,67.800000L57.300000,67.800000C51.800000,67.800000,47.400000,71.900000,47.400000,76.900000L47.400000,132C47.400000,137,51.800000,141.100000,57.300000,141.100000L117,141.100000C122.500000,141.100000,126.900000,137,126.900000,132L126.900000,120.600000L147.900000,134C149,134.800000,150.200000,135.100000,151.400000,135.100000C154.600000,135.100000,157.500000,132.600000,157.500000,129.100000L157.500000,79.900000C157.500000,76.300000,154.600000,73.900000,151.400000,73.900000L151.400000,73.900000ZM120.800000,132C120.800000,133.600000,119.100000,135,117,135L57.300000,135C55.300000,135,53.500000,133.600000,53.500000,132L53.500000,76.900000C53.500000,75.300000,55.200000,73.900000,57.300000,73.900000L117,73.900000C119,73.900000,120.800000,75.300000,120.800000,76.900000L120.800000,132L120.800000,132ZM151.400000,129L151.200000,128.800000L127,113.300000L127,95.600000L151.400000,80L151.400000,129Z" fill="rgb(68,79,109)" stroke="none" stroke-width="1"/></g></svg>