<svg id="videodev" xmlns="http://www.w3.org/2000/svg" xmlns:xlink="http://www.w3.org/1999/xlink" viewBox="0 0 200 180" shape-rendering="geometricPrecision" text-rendering="geometricPrecision"><style><![CDATA[#videodev-videodev_x5f_gear_tr {animation: videodev-videodev_x5f_gear_tr__tr 3000ms linear infinite normal forwards}@keyframes videodev-videodev_x5f_gear_tr__tr { 0% {transform: translate(65.634487px,73.699345px) rotate(0deg)} 100% {transform: translate(65.634487px,73.699345px) rotate(360deg)} }]]></style><g id="videodev-videodev"><g id="videodev-videodev_x5f_gear_tr" transform="translate(65.634487,73.699345) rotate(0)"><g id="videodev-videodev_x5f_gear" transform="translate(-65.634487,-73.699345)"><path id="videodev-videodev_x5f_gear_x5f_inner" d="M65.400000,87.900000C57.600000,87.900000,51.300000,81.600000,51.300000,73.800000C51.300000,66,57.600000,59.700000,65.400000,59.700000C73.200000,59.700000,79.500000,66,79.500000,73.800000C79.500000,81.600000,73.200000,87.900000,65.400000,87.900000ZM65.400000,65.100000C60.600000,65.100000,56.700000,69,56.700000,73.800000C56.700000,78.600000,60.600000,82.500000,65.400000,82.500000C70.200000,82.500000,74.100000,78.600000,74.100000,73.800000C74.100000,69,70.200000,65.100000,65.400000,65.100000L65.400000,65.100000Z" fill="rgb(68,79,109)" stroke="none" stroke-width="1"/><path id="videodev-videodev_x5f_gear_x5f_outer" d="M100.800000,80.300000L96,77.300000C96.300000,74.900000,96.300000,72.500000,96,70.100000L100.300000,67.400000C101.900000,66.400000,102.600000,64.500000,102,62.700000C100.200000,57.100000,97.700000,52.700000,93.100000,47.600000C91.800000,46.200000,89.700000,45.900000,88,46.800000L83.300000,49.500000C81.400000,48.100000,79.300000,46.900000,77.100000,45.900000L77.100000,40.500000C77.100000,38.600000,75.800000,36.900000,73.900000,36.500000C67.100000,35,62.500000,35.200000,56.500000,36.500000C54.600000,36.900000,53.300000,38.600000,53.300000,40.500000L53.300000,46C51.100000,47,49,48.100000,47.100000,49.600000L42.400000,46.900000C40.700000,45.900000,38.600000,46.300000,37.300000,47.700000C33.100000,52.200000,30.700000,56.200000,28.700000,62.700000C28.100000,64.500000,28.900000,66.500000,30.500000,67.500000L35.200000,70.200000C34.900000,72.600000,34.900000,75,35.200000,77.400000L30.600000,80C28.900000,81,28.200000,83,28.800000,84.800000C30.900000,91.400000,33.300000,95.300000,37.400000,99.800000C38.700000,101.200000,40.800000,101.500000,42.500000,100.600000L47.200000,97.900000C49.100000,99.400000,51.200000,100.600000,53.400000,101.500000L53.400000,106.900000C53.400000,108.800000,54.700000,110.500000,56.600000,110.900000C62.900000,112.300000,67.600000,112.300000,74,110.900000C75.900000,110.500000,77.200000,108.800000,77.200000,106.900000L77.200000,101.500000C79.400000,100.500000,81.500000,99.400000,83.400000,97.900000L88.100000,100.600000C89.800000,101.600000,91.900000,101.200000,93.200000,99.800000C97.100000,95.600000,101.600000,89.900000,102.700000,84.600000C103,83,102.300000,81.300000,100.800000,80.300000ZM89.900000,95.400000L82.800000,91.300000L81.300000,92.600000C79,94.600000,76.300000,96.100000,73.500000,97.100000L71.700000,97.700000L71.700000,105.800000C67.500000,106.700000,63.100000,106.700000,58.900000,105.800000L58.900000,97.700000L57,97.100000C54.100000,96.100000,51.500000,94.600000,49.200000,92.600000L47.700000,91.300000L40.600000,95.400000C37.700000,92.200000,35.500000,88.400000,34.200000,84.300000L41.300000,80.200000L40.900000,78.300000C40.400000,75.300000,40.400000,72.200000,40.900000,69.200000L41.300000,67.300000L34.200000,63.200000C35.600000,59.100000,37.800000,55.300000,40.600000,52.100000L47.700000,56.200000L49.200000,54.900000C51.500000,52.900000,54.200000,51.400000,57,50.400000L58.800000,49.800000L58.800000,41.700000C63,40.800000,67.400000,40.800000,71.600000,41.700000L71.600000,49.800000L73.400000,50.400000C76.300000,51.400000,78.900000,52.900000,81.200000,54.900000L82.700000,56.200000L89.800000,52.100000C92.700000,55.300000,95.600000,59.100000,97,63.200000L90,67.300000L90.400000,69.200000C90.900000,72.200000,90.900000,75.300000,90.400000,78.300000L90,80.200000L97.100000,84.300000C95.700000,88.300000,92.700000,92.100000,89.900000,95.400000Z" fill="rgb(68,79,109)" stroke="none" stroke-width="1"/></g></g><path id="videodev-videodev_x5f_hider" d="M62.100000,116.500000L104.100000,116.500000L104.100000,72.500000L70.100000,72.500000C65.700000,72.500000,62.100000,76.100000,62.100000,80.500000L62.100000,116.500000Z" fill="rgb(255,255,255)" stroke="none" stroke-width="1"/><path id="videodev-videodev_x5f_body" d="M165.300000,77.200000C164.100000,77.200000,162.900000,77.500000,161.800000,78.300000L140.800000,91.700000L140.800000,80.200000C140.800000,75.200000,136.400000,71.100000,130.900000,71.100000L71.200000,71.100000C65.700000,71.100000,61.300000,75.200000,61.300000,80.200000L61.300000,135.400000C61.300000,140.400000,65.700000,144.500000,71.200000,144.500000L130.900000,144.500000C136.400000,144.500000,140.800000,140.400000,140.800000,135.400000L140.800000,124L161.800000,137.400000C162.900000,138.200000,164.100000,138.500000,165.300000,138.500000C168.500000,138.500000,171.400000,136,171.400000,132.500000L171.400000,83.200000C171.400000,79.600000,168.500000,77.200000,165.300000,77.200000L165.300000,77.200000ZM134.700000,135.300000C134.700000,136.900000,133,138.300000,130.900000,138.300000L71.200000,138.300000C69.200000,138.300000,67.400000,136.900000,67.400000,135.300000L67.400000,80.200000C67.400000,78.600000,69.100000,77.200000,71.200000,77.200000L130.900000,77.200000C132.900000,77.200000,134.700000,78.600000,134.700000,80.200000L134.700000,135.300000L134.700000,135.300000ZM165.300000,132.300000L165.100000,132.100000L140.900000,116.600000L140.900000,98.900000L165.400000,83.300000L165.400000,132.300000Z" fill="rgb(68,79,109)" stroke="none" stroke-width="1"/></g></svg>