<?xml version="1.0" encoding="utf-8"?>
<!-- Generator: Adobe Illustrator 25.0.1, SVG Export Plug-In . SVG Version: 6.00 Build 0)  -->
<svg version="1.1" id="Layer_1" xmlns="http://www.w3.org/2000/svg" xmlns:xlink="http://www.w3.org/1999/xlink" x="0px" y="0px"
	 viewBox="0 0 200 180" enable-background="new 0 0 200 180" xml:space="preserve">
<path id="wlb" fill="#444F6D" d="M148.9,93.1L132,65.8c-0.5-0.7-1.3-1.1-2.1-1.1c-0.8,0-1.6,0.4-2.1,1.1L111,93.1
	c-0.6,0.9-0.9,2-0.9,3c0.8,10.2,9.4,18.2,19.8,18.2s19-8,19.8-18.2C149.9,95.1,149.5,94,148.9,93.1L148.9,93.1z M130,109.3
	c-6.4,0-12-4.2-14.1-9.9H144C141.9,105.2,136.4,109.3,130,109.3z M116,94.5l14-22.6l14.1,22.6H116z M133.7,124.2h-31V69.3
	c4.3-1.1,7.4-4.9,7.4-9.6h23.5c0.7,0,1.2-0.6,1.2-1.2v-2.5c0-0.7-0.6-1.2-1.2-1.2h-25c0,0-0.7-1.7-3-3.3c-1.6-1.1-3.5-1.7-5.5-1.7
	s-4,0.6-5.5,1.7c-2.3,1.5-2.9,3.2-3,3.3h-25c-0.7,0-1.2,0.6-1.2,1.2v2.5c0,0.7,0.6,1.2,1.2,1.2h23.5c0,4.6,3.2,8.5,7.4,9.6v54.9h-31
	c-0.7,0-1.2,0.6-1.2,1.2v2.5c0,0.7,0.6,1.2,1.2,1.2h66.9c0.7,0,1.2-0.6,1.2-1.2v-2.5C134.9,124.8,134.4,124.2,133.7,124.2z
	 M95.3,59.8c0-2.7,2.2-5,5-5c2.7,0,5,2.2,5,5c0,2.7-2.2,5-5,5C97.5,64.7,95.3,62.5,95.3,59.8z M90.3,96.1c0.1-1.1-0.3-2.1-0.9-3
	L72.6,65.8c-0.5-0.7-1.3-1.1-2.1-1.1s-1.6,0.4-2.1,1.1L51.6,93.1c-0.6,0.9-0.9,2-0.9,3c0.8,10.2,9.4,18.2,19.8,18.2
	C80.9,114.3,89.5,106.3,90.3,96.1L90.3,96.1z M70.5,71.9l14.1,22.6H56.5L70.5,71.9z M56.5,99.4h28.1c-2.1,5.8-7.6,9.9-14,9.9
	C64.1,109.3,58.5,105.1,56.5,99.4z"/>
</svg>
